<svg width="24" height="10" viewBox="0 0 24 10" fill="none" xmlns="http://www.w3.org/2000/svg">
<path d="M23.8167 4.59231L19.0209 0.168697C18.7773 -0.0562324 18.3865 -0.0562324 18.1429 0.168697C17.8993 0.393627 17.8993 0.754452 18.1429 0.979381L21.878 4.4283H0.624217C0.279121 4.4283 0 4.68604 0 5.00469C0 5.32334 0.279121 5.58107 0.624217 5.58107H21.878L18.1429 9.02062C17.8993 9.24555 17.8993 9.60637 18.1429 9.8313C18.2647 9.94377 18.422 10 18.5844 10C18.7468 10 18.9041 9.94377 19.0259 9.8313L23.8217 5.403C24.0603 5.18276 24.0603 4.81724 23.8167 4.59231Z" fill="#2F80ED"/>
</svg>
