<svg width="24" height="24" viewBox="0 0 24 24" fill="none" xmlns="http://www.w3.org/2000/svg">
<path d="M22.6923 12.3673L22.9173 12L22.6923 11.6325C22.6545 11.5712 21.7493 10.11 19.9905 8.64569C17.6514 6.69836 14.8956 5.66895 12.0211 5.66895C9.14722 5.66895 6.3847 6.69781 4.03217 8.64423C2.26337 10.1078 1.34784 11.5679 1.30975 11.6294L1.07996 12L1.30975 12.3706C1.34784 12.4321 2.26337 13.8922 4.03217 15.3558C6.3847 17.3022 9.14722 18.3311 12.0211 18.3311C14.8956 18.3311 17.6514 17.3016 19.9905 15.3543C21.7493 13.89 22.6545 12.4288 22.6923 12.3673ZM19.0534 14.3044C16.9492 16.0432 14.5831 16.9246 12.0211 16.9246C9.45813 16.9246 7.08435 16.0426 4.96582 14.3027C3.87012 13.403 3.12726 12.4918 2.76343 12C3.12744 11.5078 3.8703 10.5969 4.96582 9.69708C7.08435 7.9574 9.45795 7.0752 12.0211 7.0752C14.5831 7.0752 16.949 7.95685 19.0534 9.69543C20.1442 10.5967 20.8806 11.5091 21.2395 12C20.8802 12.4911 20.144 13.4035 19.0534 14.3044Z" fill="#616E8C"/>
<path d="M12 7.7749C9.67035 7.7749 7.77502 9.67023 7.77502 11.9999C7.77502 14.3295 9.67035 16.2249 12 16.2249C14.3297 16.2249 16.225 14.3295 16.225 11.9999C16.225 9.67023 14.3297 7.7749 12 7.7749ZM12 14.8186C10.4458 14.8186 9.18127 13.5541 9.18127 11.9999C9.18127 10.4457 10.4458 9.18115 12 9.18115C13.5542 9.18115 14.8187 10.4457 14.8187 11.9999C14.8187 13.5541 13.5542 14.8186 12 14.8186Z" fill="#616E8C"/>
</svg>
