<svg width="17" height="17" viewBox="0 0 17 17" fill="none" xmlns="http://www.w3.org/2000/svg">
<path fill-rule="evenodd" clip-rule="evenodd" d="M2 7.22447C2 4.33907 4.33907 2 7.22446 2C10.1099 2 12.4489 4.33907 12.4489 7.22447C12.4489 8.625 11.8978 9.89683 11.0007 10.8349C10.9702 10.859 10.9408 10.8851 10.9127 10.9132C10.8846 10.9413 10.8586 10.9706 10.8345 11.0011C9.89645 11.898 8.62479 12.4489 7.22446 12.4489C4.33907 12.4489 2 10.1099 2 7.22447ZM11.5767 12.9914C10.3662 13.9063 8.85872 14.4489 7.22446 14.4489C3.2345 14.4489 0 11.2144 0 7.22447C0 3.2345 3.2345 0 7.22446 0C11.2144 0 14.4489 3.2345 14.4489 7.22447C14.4489 8.85897 13.9061 10.3667 12.9909 11.5772L15.7115 14.2978C16.102 14.6883 16.102 15.3214 15.7115 15.712C15.321 16.1025 14.6878 16.1025 14.2973 15.712L11.5767 12.9914Z" fill="#203979"/>
</svg>
