<svg width="17" height="17" viewBox="0 0 17 17" fill="none" xmlns="http://www.w3.org/2000/svg">
<path fill-rule="evenodd" clip-rule="evenodd" d="M2 7.61592C2 4.60917 4.3647 2.21875 7.22449 2.21875C10.0843 2.21875 12.449 4.60917 12.449 7.61592C12.449 9.07555 11.8917 10.3899 10.991 11.3561C10.9675 11.3752 10.9446 11.3955 10.9225 11.417C10.8872 11.4514 10.855 11.4877 10.8258 11.5257C9.88474 12.4496 8.61296 13.0131 7.22449 13.0131C4.3647 13.0131 2 10.6227 2 7.61592ZM11.5757 13.5223C10.3687 14.4568 8.8638 15.0131 7.22449 15.0131C3.20889 15.0131 0 11.6753 0 7.61592C0 3.55655 3.20889 0.21875 7.22449 0.21875C11.2401 0.21875 14.449 3.55655 14.449 7.61592C14.449 9.29289 13.9013 10.8467 12.9754 12.093L15.7211 14.9149C16.1063 15.3107 16.0976 15.9438 15.7018 16.3289C15.3059 16.7141 14.6728 16.7054 14.2877 16.3096L11.5757 13.5223Z" fill="white"/>
</svg>
